<svg xmlns="http://www.w3.org/2000/svg" viewBox="0 0 64 64" id="home"><polygon fill="#e3fcfd" points="41 27 32 18 23 27 9 27 9 62 55 62 55 27 41 27"></polygon><rect width="18" height="21" x="23" y="41" fill="#42eaf5"></rect><polygon fill="#42eaf5" points="52 10 11 10 2 27 9 27 23 27 32 18 41 27 55 27 62 27 52 10"></polygon><rect width="8" height="17" x="41" y="2" fill="#42eaf5"></rect><path fill="#007da1" d="M63.7204,25.98584l-9.99878-17A1.9991,1.9991,0,0,0,51.99817,8H48.99854V2a2,2,0,0,0-1.99976-2H38.99969a2,2,0,0,0-1.99975,2V8H11.003A2,2,0,0,0,9.23566,9.06445l-8.999,17A2.01375,2.01375,0,0,0,2.00409,29H7.00348V60H5.00372a2,2,0,0,0,0,4H58.99731a2,2,0,0,0,0-4H56.99756V29H61.997A2.0136,2.0136,0,0,0,63.7204,25.98584ZM38.99969,60H25.00134V43H38.99969Zm13.99836,0H42.99921V41a2,2,0,0,0-1.99976-2H23.00159a2,2,0,0,0-1.99976,2V60H11.003V29h7.171l-1.58575,1.58594a1.99968,1.99968,0,0,0,2.82782,2.82812L32.00055,20.82861,44.585,33.41406a1.99968,1.99968,0,0,0,2.82782-2.82812L45.827,29h7.171ZM41.82751,25l-8.41308-8.41406a1.9989,1.9989,0,0,0-2.82782,0L22.17358,25H5.32544L12.207,12h24.793v2a1.99976,1.99976,0,1,0,3.99951,0V4H44.999V14a1.99976,1.99976,0,1,0,3.99952,0V12h1.85571l7.64606,13Z"></path><path fill="#007da1" d="M16.00236,15a2,2,0,1,0,1.99982,2A2.00566,2.00566,0,0,0,16.00236,15Z"></path></svg>